# xmcd CD database file
#
# Track frame offsets:
#	150
#	34750
#	55077
#	78275
#	103315
#	120400
#	144102
#	167782
#	188597
#	213517
#	228982
#	251670
#	274652
#
# Disc length: 4078 seconds
#
# Revision: 0
# Processed by: cddbd v1.5PL3 Copyright (c) Steve Scherf et al.
# Submitted via: CDex 1.51
#
DISCID=aa0fec0d
DTITLE=planet of love - planet of love
DYEAR=2000
DGENRE=New Age
TTITLE0=Planet Love
TTITLE1=夜間飛行
TTITLE2=Dreaming
TTITLE3=水の惑星に生まれて
TTITLE4=Chant-I
TTITLE5=You're My Friend (君は僕の友だち)
TTITLE6=For Peaceful Fields
TTITLE7=冬のモザイク
TTITLE8=よろこびのうた
TTITLE9=Chant-II
TTITLE10=Grace of the Earth
TTITLE11=知られざる子供達 (Unknown Children)
TTITLE12=If There Were No Mines (with Planet Of Love)
EXTD=YEAR: 2000
EXTT0=
EXTT1=
EXTT2=
EXTT3=
EXTT4=
EXTT5=
EXTT6=
EXTT7=
EXTT8=
EXTT9=
EXTT10=
EXTT11=
EXTT12=
PLAYORDER=
